<?xml version="1.0" encoding="UTF-8"?>
<svg xmlns="http://www.w3.org/2000/svg" version="1.1" viewBox="0 0 183.9 31.5">
  <defs>
    <style>
      .cls-1 {
        fill: #62a3d7;
      }
    </style>
  </defs>
  <!-- Generator: Adobe Illustrator 28.7.1, SVG Export Plug-In . SVG Version: 1.2.0 Build 142)  -->
  <g>
    <g id="Layer_1">
      <g>
        <g>
          <path d="M58.9,2.7h-10.1c-6.1,0-9.1,3.1-9.1,9.3v2.8h6.1v-2.9c0-2.1,1-3.1,3.1-3.1h7v6h-10.1s-6.1,6.1-6.1,6.1v8.2h6.1v-8.1s10.1,0,10.1,0v8.1h6.1V5.7c0-2-1-3-3-3Z"></path>
          <path d="M176.8,2.7h-10.1c-6.1,0-9.1,3.1-9.1,9.3v2.8h6.1v-2.9c0-2.1,1-3.1,3.1-3.1h7v6h-10.1s-6.1,6.1-6.1,6.1v8.2h6.1v-8.1s10.1,0,10.1,0v8.1h6.1V5.7c0-2-1-3-3-3Z"></path>
          <g>
            <path d="M150.5,22.9h-10.2c-2.1,0-3.1-1.1-3.1-3.1v-11.1l-6.1,6.1v4.9c0,6.2,3,9.3,9.1,9.3h10.2c2,0,3-1,3-3s-1-3.1-3-3.1Z"></path>
            <path d="M137.2,8.7h0s0,0,0,0h13.1c2.1,0,3.1-1,3.1-3,0-2-1.1-3-3.2-3h-10c-4.9,0-7.9,2-8.8,6h5.8Z"></path>
          </g>
          <g>
            <path d="M91.5,2.6h-22.2c-2.1,0-3.1,1-3.1,3v3.1h6.1s5,0,5,0c2.1,0,3.1,1,3.1,3.1v17.2h6.1V8.7s5,0,5,0c2.1,0,3.1,1,3.1,3.1v17.2h6.1V12c0-6.2-3-9.3-9.1-9.3Z"></path>
            <polygon points="66.1 14.9 66.1 29 72.2 29 72.2 8.8 66.1 14.9"></polygon>
          </g>
          <g>
            <path d="M110.8,8.7h0s13.1,0,13.1,0c2.1,0,3.1-1,3.1-3,0-2-1.1-3-3.2-3h-16.1c-2,0-3,1-3,3v3h6.1Z"></path>
            <path d="M124.1,22.9h-10.2c-2.1,0-3.1-1.1-3.1-3.1v-1h9.2c2,0,3-1,3-3,0-2.1-1-3.1-3.1-3.1h-9.1s0-4,0-4l-6.1,6.1v4.9c0,6.2,3,9.3,9.1,9.3h10.2c2,0,3-1,3-3s-1-3.1-3-3.1Z"></path>
          </g>
        </g>
        <g>
          <path class="cls-1" d="M27.8,15.4c-.2.1-.5,0-.9,0-.4,0-.9.5-1.6,1.4-.7.9-1,1.3-.8,1.3.4,0,.9-.4,1.6-.8.7-.4,1.6-.8,2.2-.8s1.3.2,1.3.2c0,0-.2-.8-.6-1.1-.3-.3-1-.4-1.2-.2Z"></path>
          <path class="cls-1" d="M24.1,13.5c-.1.6.3,1.1,1.2.9,1-.1,1.5-.2,1.8,0,.2.1.6.4.7,0,.2-.5.8-2.1.7-2.8,0-.4-.2-.6-.5-.9-.4-.3-1.2,0-2.1.7-.6.5-1.7,1.5-1.8,2.1Z"></path>
          <path class="cls-1" d="M23.4,8.2c0,.4-.2.8-.2.8.4.7,1.7,1,1.7,1-.3-.3-.8-1.8-1.4-2.7-1.7-2.8-4.2-3.7-4.2-3.7,3,1.5,4.1,4.2,4.1,4.6Z"></path>
          <polygon class="cls-1" points="9.8 22.6 5.2 22.6 5.2 18 9.8 22.6"></polygon>
          <polygon class="cls-1" points="9.8 13.3 5.2 13.3 5.2 8.7 9.8 13.3"></polygon>
          <polygon class="cls-1" points="11.5 14.9 11.5 19.6 15.6 23.8 20.3 23.8 11.5 14.9"></polygon>
          <polygon class="cls-1" points="16.2 29 11.5 29 11.5 24.3 16.2 29"></polygon>
          <path class="cls-1" d="M20.3,29h7.9c.6-.6,1.1-1.1,1.1-1.1,1.7-1.8,2.6-4.4,2.6-5.3,0-.9-.4-1.9-1-2.4-.6-.5-1.8-.8-3.5.2-1.7,1-2.1,1.2-3.2,1.5-.6.2-2,.6-2,.6-.5.1-.9.3-1.3.7l-.6.6h0s0,0,0,0v5.3Z"></path>
          <path class="cls-1" d="M6.6,8.2c.5-.9,1.4-2.4,2.1-3,2.5-2.2,4.6-2.5,4.5-2.5-3,.6-5.7,2.1-7.9,4.2l1.2,1.2Z"></path>
          <path class="cls-1" d="M19.1,9.7c-.2-.4-.6-.9-1.6-1.1-1-.2-1.5.3-1.9.8-.2.3-.5.6-.7.8-.7.3-1.6,1.2-1.9,1.5-.7.5-1.2.9-2,1.1l.4.4c.6-.2,1.2-.5,1.7-1,.3-.2,1.2-1,1.4-1.1.4-.3.9-.4,1.2-.5,1-.3,2.2-.4,3.8,0,0,0-.2-.3-.4-.7Z"></path>
        </g>
      </g>
    </g>
  </g>
</svg>
