<?xml version="1.0" encoding="UTF-8"?>
<svg xmlns="http://www.w3.org/2000/svg" version="1.1" viewBox="0 0 304.7 69">
  <defs>
    <style>
      .cls-1 {
        fill: #fff;
      }

      .cls-2 {
        fill: #62a3d7;
      }

      .cls-3 {
        fill: #63a2d6;
      }
    </style>
  </defs>
  <!-- Generator: Adobe Illustrator 28.7.1, SVG Export Plug-In . SVG Version: 1.2.0 Build 142)  -->
  <g>
    <g id="Layer_1">
      <g id="Layer_1-2" data-name="Layer_1">
        <g>
          <g>
            <g>
              <path class="cls-1" d="M70.9,19.8h-11.1c-6.7,0-10,3.4-10,10.2v3h6.7v-3.2c0-2.3,1.1-3.4,3.4-3.4h7.7v6.6h-11.1l-6.7,6.7v9h6.7v-8.9h11.1v8.9h6.7v-25.6c0-2.2-1.1-3.3-3.3-3.3h0Z"></path>
              <g>
                <polygon class="cls-1" points="104.6 33.2 104.6 48.7 111.3 48.7 111.3 26.5 104.6 33.2"></polygon>
                <path class="cls-1" d="M111.3,19.8h-3.3c-2.2,0-3.3,1.1-3.3,3.3v3.3h6.7v-6.6h0Z"></path>
              </g>
              <polygon class="cls-1" points="86 42.1 99.9 28.2 99.9 19.7 99.9 19.7 78.9 19.8 79 26.5 92.8 26.5 79 40.1 79 48.7 79 48.7 99.9 48.7 99.8 42.1 86 42.1"></polygon>
            </g>
            <g>
              <path class="cls-2" d="M125.6,48.7v-28.8h6.3c4.1,0,7,.2,8.7.6s3.1,1.1,4.4,2.1c1.7,1.3,2.9,2.9,3.8,4.9.9,2,1.3,4.3,1.3,6.8s-.4,4.8-1.3,6.8c-.9,2-2.1,3.6-3.8,4.9-1.3,1-2.7,1.7-4.3,2.1-1.6.4-4.1.6-7.5.6h-7.6,0ZM130.3,44.4h3.9c2.2,0,3.8,0,4.9-.4,1.1-.3,2-.8,2.8-1.5,1.1-.9,1.9-2.1,2.5-3.5.5-1.4.8-3,.8-4.8s-.3-3.4-.8-4.8-1.4-2.5-2.5-3.5c-.8-.7-1.8-1.2-2.9-1.5-1.1-.3-2.9-.4-5.3-.4h-3.4v20.4Z"></path>
              <path class="cls-2" d="M153,48.7v-28.8h16.1v4h-11.4v7.2h11.4v4.1h-11.4v9.3h11.4v4.2h-16.1Z"></path>
              <path class="cls-2" d="M172.8,42.9l3.7-1.7c.4,1.3,1,2.3,1.9,2.9.9.7,2.2,1,3.6,1s2.5-.4,3.3-1.2,1.2-1.8,1.2-3.1-1.4-3.2-4.2-4.5c-.4-.2-.7-.3-.9-.4-3.2-1.5-5.3-3-6.3-4.2-1.1-1.3-1.6-2.8-1.6-4.6s.8-4.3,2.4-5.7c1.6-1.5,3.7-2.2,6.3-2.2s3.9.4,5.3,1.2c1.4.8,2.4,2,3,3.5l-3.7,1.9c-.6-.9-1.2-1.6-1.9-2s-1.5-.6-2.4-.6-2.3.3-3,1-1.1,1.5-1.1,2.6c0,1.7,1.6,3.3,4.9,4.8.2.1.4.2.6.3,2.8,1.3,4.8,2.6,5.9,3.8,1.1,1.3,1.6,2.8,1.6,4.7,0,2.7-.9,4.9-2.6,6.5-1.7,1.6-4,2.4-7,2.4s-4.5-.6-6-1.7c-1.6-1.1-2.6-2.7-3.1-4.8h.1Z"></path>
              <path class="cls-2" d="M195,48.7v-28.8h4.7v11.9l10.4-11.9h5.7l-11.4,12.8,12.8,16h-6l-11.4-14.7v14.7h-4.8Z"></path>
              <path class="cls-2" d="M229.5,23.8v24.9h-4.7v-24.9h-7.7v-4h20v4s-7.6,0-7.6,0Z"></path>
              <path class="cls-2" d="M268.8,34.3c0,2-.4,4-1.2,5.8-.8,1.8-1.9,3.5-3.4,4.9s-3.2,2.5-5,3.3c-1.9.8-3.8,1.1-5.9,1.1s-4.1-.4-5.9-1.2c-1.9-.8-3.5-1.9-5-3.3-1.5-1.4-2.6-3.1-3.3-4.9-.8-1.8-1.1-3.8-1.1-5.8s.4-4,1.1-5.8c.8-1.8,1.9-3.5,3.3-4.9,1.5-1.4,3.1-2.5,5-3.3,1.9-.7,3.8-1.1,5.9-1.1s4,.4,5.9,1.1,3.5,1.8,5,3.3,2.6,3.1,3.4,4.9,1.2,3.8,1.2,5.8h0ZM263.9,34.3c0-1.5-.3-2.8-.8-4.2-.5-1.3-1.3-2.5-2.3-3.5s-2.1-1.8-3.4-2.3-2.6-.8-4-.8-2.8.3-4,.8c-1.3.5-2.4,1.3-3.4,2.3s-1.8,2.2-2.3,3.5-.8,2.7-.8,4.2.3,2.8.8,4.1,1.3,2.5,2.3,3.5,2.1,1.8,3.4,2.3c1.3.5,2.6.8,4.1.8s2.7-.3,4-.8,2.4-1.3,3.4-2.3,1.8-2.2,2.3-3.5.8-2.7.8-4.1h-.1Z"></path>
              <path class="cls-2" d="M277,35.7v12.9h-4.4v-28.8h7.1c2.1,0,3.6.1,4.6.3,1,.2,1.9.6,2.6,1.1.9.7,1.6,1.6,2.1,2.7s.8,2.4.8,3.8-.3,2.6-.8,3.8-1.2,2.1-2.1,2.7c-.7.5-1.6.9-2.6,1.1-1,.2-2.5.3-4.6.3h-2.7ZM277.3,31.9h1.2c2.6,0,4.3-.3,5.2-.8.9-.6,1.3-1.6,1.3-3s-.5-2.6-1.4-3.2-2.6-.9-5.1-.9h-1.2v8h0Z"></path>
            </g>
          </g>
          <g>
            <path class="cls-3" d="M35.3,33.8c-.3,0-.6,0-1,0s-1,.6-1.8,1.5c-.8,1-1.1,1.5-.9,1.5.4,0,1-.4,1.7-.9s1.8-.9,2.4-.9,1.4.2,1.4.2c0,0-.2-.8-.6-1.2-.4-.3-1.1-.4-1.3-.3h0Z"></path>
            <path class="cls-3" d="M31.3,31.6c-.1.6.3,1.2,1.3,1,1.1,0,1.7-.2,1.9,0,.3.2.7.4.8,0,.2-.5.9-2.3.8-3,0-.4-.3-.7-.6-.9-.5-.4-1.3,0-2.3.8-.7.6-1.9,1.7-2,2.3v-.2Z"></path>
            <path class="cls-3" d="M30.5,25.9c0,.5-.2.8-.2.8.5.8,1.9,1.1,1.9,1.1-.3-.3-.9-1.9-1.6-3-1.9-3.1-4.7-4.1-4.7-4.1,3.3,1.7,4.5,4.6,4.5,5.1h0Z"></path>
            <polygon class="cls-3" points="15.6 41.7 10.5 41.7 10.5 36.6 15.6 41.7"></polygon>
            <polygon class="cls-3" points="15.6 31.5 10.5 31.5 10.5 26.4 15.6 31.5"></polygon>
            <polygon class="cls-3" points="17.3 33.3 17.3 38.4 21.9 43 27 43 17.3 33.3"></polygon>
            <polygon class="cls-3" points="22.6 48.7 17.5 48.7 17.5 43.6 22.6 48.7"></polygon>
            <path class="cls-3" d="M27,48.8h8.6l1.2-1.2c1.8-2,2.9-4.8,2.9-5.8s-.4-2.1-1.1-2.6c-.6-.5-2-.9-3.9.2-1.8,1.1-2.3,1.3-3.5,1.7-.7.2-2.2.6-2.2.6-.5,0-1,.4-1.4.8l-.6.6h0v5.8h0Z"></path>
            <path class="cls-3" d="M12,25.8c.5-1,1.5-2.6,2.4-3.3,2.7-2.4,5.1-2.7,4.9-2.7-3.3.7-6.3,2.4-8.7,4.6,0,0,1.4,1.4,1.4,1.4Z"></path>
            <path class="cls-3" d="M25.8,27.5c-.2-.4-.7-1-1.8-1.2-1.1-.2-1.7.3-2.1.8-.2.3-.5.7-.7.8-.8.3-1.7,1.3-2.1,1.6-.7.6-1.3,1-2.2,1.2l.5.5c.7-.2,1.3-.5,1.9-1.1s1.3-1.1,1.5-1.3c.4-.3.9-.5,1.3-.6,1.1-.3,2.4-.4,4.1,0,0,0-.2-.3-.5-.8h.1Z"></path>
          </g>
        </g>
      </g>
    </g>
  </g>
</svg>
