<?xml version="1.0" encoding="UTF-8"?>
<svg xmlns="http://www.w3.org/2000/svg" version="1.1" viewBox="0 0 739.3 169.1">
  <defs>
    <style>
      .cls-1 {
        fill: #fff;
      }
    </style>
  </defs>
  <!-- Generator: Adobe Illustrator 28.7.1, SVG Export Plug-In . SVG Version: 1.2.0 Build 142)  -->
  <g>
    <g id="Layer_1">
      <g>
        <path class="cls-1" d="M137.3,99.3h16.9v-40.2c0-16.2-6.3-28.9-24.3-28.9s-17.3,3.9-22.2,12.5c-3.5-8.4-10.7-12.5-21.1-12.5s-17.7,5.9-20.6,12.2h-.3v-10.5h-16v67.4h16.9v-36.8c0-9,4.4-17.1,15.4-17.1s11.5,5.5,11.5,13.8v40.2h16.9v-36.5c0-8.7,3.9-17.4,14.5-17.4s12.5,7.3,12.5,15.7v38.2Z"></path>
        <path class="cls-1" d="M204.1,87.5c-9.4,0-17-6-18.1-16h51.4v-4.6c0-23.5-12.8-36.7-31.6-36.7s-36.7,14.2-36.7,35.4,16.3,35.4,36.7,35.4,20.6-3.8,28.5-13.5l-12.1-9.1c-4.2,5.2-9.7,9.1-18.1,9.1ZM203.4,42.8c10.5,0,17,6.2,17.1,16h-34.5c1.3-9.7,7.4-16,17.4-16Z"></path>
        <path class="cls-1" d="M266,50.8c0-5.1,5.3-7.2,9.8-7.2s10,2.4,13.2,6.9l11.2-10.1c-5.5-7.4-15-10.3-24-10.3-13.6,0-27.1,6.7-27.1,21.8,0,25.7,36.4,14.7,36.4,28.7s-6.3,7.7-11.2,7.7c-7.2,0-11.7-3.5-16-8.3l-11.2,10.5c6.9,7.7,15.9,10.4,26.3,10.4s29.1-5.6,29.1-21.6c0-26.3-36.4-16.4-36.4-28.5Z"></path>
        <path class="cls-1" d="M402.4,61.1v38.2h16.9v-40.2c0-16.2-6.3-28.9-24.3-28.9s-17.3,3.9-22.2,12.5c-3.5-8.4-10.7-12.5-21.1-12.5s-17.7,5.9-20.6,12.2h-.3v-10.5h-16v67.4h16.9v-36.8c0-9,4.4-17.1,15.4-17.1s11.5,5.5,11.5,13.8v40.2h16.9v-36.5c0-8.7,3.9-17.4,14.5-17.4s12.5,7.3,12.5,15.7Z"></path>
        <path class="cls-1" d="M470.9,30.2c-20.4,0-36.7,14.2-36.7,35.4s16.3,35.4,36.7,35.4,20.6-3.8,28.5-13.5l-12.1-9.1c-4.2,5.2-9.7,9.1-18.1,9.1s-17-6-18.1-16h51.4v-4.6c0-23.5-12.8-36.7-31.6-36.7ZM451.1,58.9c1.3-9.7,7.4-16,17.4-16s17,6.2,17.1,16h-34.5Z"></path>
        <path class="cls-1" d="M535.4,42.6h-.3v-10.7h-16.9v67.4h16.9v-36.1c0-3.7,2.2-17,18.1-17s5.3.6,8.1,1.3v-16.3c-2-.6-3.9-1-6-1-8.8,0-16.3,4.6-19.9,12.4Z"></path>
        <path class="cls-1" d="M53.7,122c-3.8,0-6.9,2.7-6.9,6.7s3.1,6.7,6.9,6.7,3.9-.7,5.4-2.5l-2.3-1.7c-.8,1-1.8,1.7-3.4,1.7s-3.2-1.1-3.4-3h9.7v-.9c0-4.4-2.4-6.9-6-6.9ZM50,127.4c.2-1.8,1.4-3,3.3-3s3.2,1.2,3.2,3h-6.5Z"></path>
        <path class="cls-1" d="M71.5,122c-2.1,0-3.3,1.1-3.9,2.4h0v-2h-3v12.7h3.2v-6.9c0-1.7.8-3.2,2.9-3.2s2.3,2.3,2.3,3.7v6.4h3.2v-8c0-2.6-1.2-5-4.6-5Z"></path>
        <path class="cls-1" d="M85.9,118.7h-3.2v3.7h-2.6v2.7h2.6v5.8c0,3,.8,4.5,4.2,4.5s1.9-.1,2.5-.4v-2.7c-.4.3-1.2.4-1.7.4-1.4,0-1.8-.8-1.8-2.1v-5.6h3.5v-2.7h-3.5v-3.7Z"></path>
        <path class="cls-1" d="M100,122c-3.8,0-6.9,2.7-6.9,6.7s3.1,6.7,6.9,6.7,3.9-.7,5.4-2.5l-2.3-1.7c-.8,1-1.8,1.7-3.4,1.7s-3.2-1.1-3.4-3h9.7v-.9c0-4.4-2.4-6.9-6-6.9ZM96.3,127.4c.2-1.8,1.4-3,3.3-3s3.2,1.2,3.2,3h-6.5Z"></path>
        <path class="cls-1" d="M114,124.4h0v-2h-3.2v12.7h3.2v-6.8c0-.7.4-3.2,3.4-3.2s1,.1,1.5.2v-3.1c-.4-.1-.7-.2-1.1-.2-1.7,0-3.1.9-3.8,2.3Z"></path>
        <path class="cls-1" d="M127.3,118.7h-3.2v3.7h-2.6v2.7h2.6v5.8c0,3,.8,4.5,4.2,4.5s1.9-.1,2.5-.4v-2.7c-.4.3-1.2.4-1.7.4-1.4,0-1.8-.8-1.8-2.1v-5.6h3.5v-2.7h-3.5v-3.7Z"></path>
        <path class="cls-1" d="M140.5,122c-2,0-4,.6-5.4,2l1.7,1.7c.8-.8,2.1-1.3,3.4-1.3s2.9.8,2.9,2.4v.3h-.8c-3.2,0-8,.3-8,4.4s2.3,3.8,4.6,3.8,3.2-.6,4.1-2.1h0v1.7h2.9v-7.3c0-1.8,0-5.7-5.4-5.7ZM142.9,130.1c0,1.8-1,2.9-3.2,2.9s-2.2-.5-2.2-1.7c0-1.8,3-2,4.8-2h.7v.7Z"></path>
        <rect class="cls-1" x="151.2" y="122.4" width="3.2" height="12.7"></rect>
        <path class="cls-1" d="M152.8,116.1c-1.2,0-2,.9-2,1.9s.8,1.9,2,1.9,2.1-.8,2.1-1.9-.9-1.9-2.1-1.9Z"></path>
        <path class="cls-1" d="M166.9,122c-2.1,0-3.3,1.1-3.9,2.4h0v-2h-3v12.7h3.2v-6.9c0-1.7.8-3.2,2.9-3.2s2.3,2.3,2.3,3.7v6.4h3.2v-8c0-2.6-1.2-5-4.6-5Z"></path>
        <path class="cls-1" d="M191.9,122c-1.9,0-3.3.7-4.2,2.4-.7-1.6-2-2.4-4-2.4s-3.3,1.1-3.9,2.3h0v-2h-3v12.7h3.2v-6.9c0-1.7.8-3.2,2.9-3.2s2.2,1,2.2,2.6v7.6h3.2v-6.9c0-1.6.7-3.3,2.7-3.3s2.4,1.4,2.4,3v7.2h3.2v-7.6c0-3-1.2-5.5-4.6-5.5Z"></path>
        <path class="cls-1" d="M208.1,122c-3.8,0-6.9,2.7-6.9,6.7s3.1,6.7,6.9,6.7,3.9-.7,5.4-2.5l-2.3-1.7c-.8,1-1.8,1.7-3.4,1.7s-3.2-1.1-3.4-3h9.7v-.9c0-4.4-2.4-6.9-6-6.9ZM204.4,127.4c.2-1.8,1.4-3,3.3-3s3.2,1.2,3.2,3h-6.5Z"></path>
        <path class="cls-1" d="M225.9,122c-2.1,0-3.3,1.1-3.9,2.4h0v-2h-3v12.7h3.2v-6.9c0-1.7.8-3.2,2.9-3.2s2.3,2.3,2.3,3.7v6.4h3.2v-8c0-2.6-1.2-5-4.6-5Z"></path>
        <path class="cls-1" d="M240.3,118.7h-3.2v3.7h-2.6v2.7h2.6v5.8c0,3,.8,4.5,4.2,4.5s1.9-.1,2.5-.4v-2.7c-.4.3-1.2.4-1.7.4-1.4,0-1.8-.8-1.8-2.1v-5.6h3.5v-2.7h-3.5v-3.7Z"></path>
        <path class="cls-1" d="M261,124.4h0v-2h-3.2v12.7h3.2v-6.8c0-.7.4-3.2,3.4-3.2s1,.1,1.5.2v-3.1c-.4-.1-.7-.2-1.1-.2-1.7,0-3.1.9-3.8,2.3Z"></path>
        <path class="cls-1" d="M275.8,122c-3.8,0-6.9,2.7-6.9,6.7s3.1,6.7,6.9,6.7,6.9-2.7,6.9-6.7-3.1-6.7-6.9-6.7ZM275.8,132.5c-2.3,0-3.7-1.8-3.7-3.8s1.4-3.8,3.7-3.8,3.7,1.8,3.7,3.8-1.4,3.8-3.7,3.8Z"></path>
        <path class="cls-1" d="M295.1,122c-2.4,0-3.7,1.1-4.3,1.9h0v-8.9h-3.2v20h3v-1.9h0c.9,1.5,2.6,2.2,4.4,2.2,3.9,0,6.3-2.9,6.3-6.7s-2.5-6.7-6.1-6.7ZM294.3,132.5c-2.3,0-3.7-1.8-3.7-3.8s1.4-3.8,3.7-3.8,3.7,1.8,3.7,3.8-1.4,3.8-3.7,3.8Z"></path>
        <path class="cls-1" d="M312.3,122c-3.8,0-6.9,2.7-6.9,6.7s3.1,6.7,6.9,6.7,6.9-2.7,6.9-6.7-3.1-6.7-6.9-6.7ZM312.3,132.5c-2.3,0-3.7-1.8-3.7-3.8s1.4-3.8,3.7-3.8,3.7,1.8,3.7,3.8-1.4,3.8-3.7,3.8Z"></path>
        <path class="cls-1" d="M328.3,118.7h-3.2v3.7h-2.6v2.7h2.6v5.8c0,3,.8,4.5,4.2,4.5s1.9-.1,2.5-.4v-2.7c-.4.3-1.2.4-1.7.4-1.4,0-1.8-.8-1.8-2.1v-5.6h3.5v-2.7h-3.5v-3.7Z"></path>
        <path class="cls-1" d="M337.8,116.1c-1.2,0-2,.9-2,1.9s.8,1.9,2,1.9,2.1-.8,2.1-1.9-.9-1.9-2.1-1.9Z"></path>
        <rect class="cls-1" x="336.2" y="122.4" width="3.2" height="12.7"></rect>
        <path class="cls-1" d="M351.2,124.9c.8,0,1.7.5,2.4,1.3l2.2-2.2c-1.2-1.4-3-1.9-4.6-1.9-3.8,0-6.9,2.7-6.9,6.7s3.1,6.7,6.9,6.7,3.3-.5,4.6-1.8l-2.1-2.3c-.6.8-1.5,1.2-2.5,1.2-2.3,0-3.7-1.8-3.7-3.8s1.4-3.8,3.7-3.8Z"></path>
        <path class="cls-1" d="M362,125.9c0-1,1-1.4,1.9-1.4s1.9.4,2.5,1.3l2.1-1.9c-1-1.4-2.8-1.9-4.5-1.9-2.6,0-5.1,1.3-5.1,4.1,0,4.8,6.9,2.8,6.9,5.4s-1.2,1.5-2.1,1.5c-1.4,0-2.2-.7-3-1.6l-2.1,2c1.3,1.5,3,2,5,2s5.5-1.1,5.5-4.1c0-5-6.9-3.1-6.9-5.4Z"></path>
        <path class="cls-1" d="M387.2,118.7h-3.2v3.7h-2.6v2.7h2.6v5.8c0,3,.8,4.5,4.2,4.5s1.9-.1,2.5-.4v-2.7c-.4.3-1.2.4-1.7.4-1.4,0-1.8-.8-1.8-2.1v-5.6h3.5v-2.7h-3.5v-3.7Z"></path>
        <path class="cls-1" d="M401.3,122c-3.8,0-6.9,2.7-6.9,6.7s3.1,6.7,6.9,6.7,3.9-.7,5.4-2.5l-2.3-1.7c-.8,1-1.8,1.7-3.4,1.7s-3.2-1.1-3.4-3h9.7v-.9c0-4.4-2.4-6.9-6-6.9ZM397.5,127.4c.2-1.8,1.4-3,3.3-3s3.2,1.2,3.2,3h-6.5Z"></path>
        <path class="cls-1" d="M418.3,124.9c.8,0,1.7.5,2.4,1.3l2.2-2.2c-1.2-1.4-3-1.9-4.6-1.9-3.8,0-6.9,2.7-6.9,6.7s3.1,6.7,6.9,6.7,3.3-.5,4.6-1.8l-2.1-2.3c-.6.8-1.5,1.2-2.5,1.2-2.3,0-3.7-1.8-3.7-3.8s1.4-3.8,3.7-3.8Z"></path>
        <path class="cls-1" d="M433.6,122c-2,0-3.2,1-3.7,2.1h0v-9.1h-3.2v20h3.2v-6.9c0-1.7.8-3.2,2.9-3.2s2.3,2.3,2.3,3.7v6.4h3.2v-8c0-2.6-1.2-5-4.6-5Z"></path>
        <path class="cls-1" d="M450.7,122c-2.1,0-3.3,1.1-3.9,2.4h0v-2h-3v12.7h3.2v-6.9c0-1.7.8-3.2,2.9-3.2s2.3,2.3,2.3,3.7v6.4h3.2v-8c0-2.6-1.2-5-4.6-5Z"></path>
        <path class="cls-1" d="M467,122c-3.8,0-6.9,2.7-6.9,6.7s3.1,6.7,6.9,6.7,6.9-2.7,6.9-6.7-3.1-6.7-6.9-6.7ZM467,132.5c-2.3,0-3.7-1.8-3.7-3.8s1.4-3.8,3.7-3.8,3.7,1.8,3.7,3.8-1.4,3.8-3.7,3.8Z"></path>
        <rect class="cls-1" x="478.8" y="115" width="3.2" height="20"></rect>
        <path class="cls-1" d="M493.8,122c-3.8,0-6.9,2.7-6.9,6.7s3.1,6.7,6.9,6.7,6.9-2.7,6.9-6.7-3.1-6.7-6.9-6.7ZM493.8,132.5c-2.3,0-3.7-1.8-3.7-3.8s1.4-3.8,3.7-3.8,3.7,1.8,3.7,3.8-1.4,3.8-3.7,3.8Z"></path>
        <path class="cls-1" d="M515.6,124.3h0c-.9-1.5-2.6-2.2-4.4-2.2-3.9,0-6.3,2.9-6.3,6.7s2.5,6.5,6.3,6.5,3.2-.6,4.2-1.9h0v.9c0,2.5-1,4.3-4,4.3s-3.1-.7-4.4-1.8l-1.9,2.6c1.8,1.6,3.9,2.1,6.3,2.1,5,0,7.2-2.9,7.2-7.5v-11.6h-3v1.9ZM511.8,132.4c-2.1,0-3.7-1.7-3.7-3.7s1.5-3.8,3.8-3.8,3.8,1.5,3.8,3.7-1.4,3.7-3.8,3.7Z"></path>
        <path class="cls-1" d="M529.4,131.2h0l-3.6-8.8h-3.5l5.4,12.8-.6,1.5c-.5,1.3-1,1.9-2.5,1.9s-1.1-.1-1.6-.3l-.4,2.9c.8.2,1.6.3,2.4.3,2.8,0,3.9-1.2,4.8-3.6l6-15.4h-3.3l-3.2,8.8Z"></path>
        <path class="cls-1" d="M648.2,18.5c-32.4,0-58.8,26.4-58.8,58.8s26.4,58.8,58.8,58.8,58.8-26.4,58.8-58.8-26.4-58.8-58.8-58.8ZM648.2,123.1c-25.2,0-45.8-20.5-45.8-45.8s6.7-27.2,17.1-35.6c0,0,0,0,.1,0,2.8-2,5.8-3.6,8.9-4.8,3.1-1.2,6.3-2.1,9.5-2.5,3.2-.4,6.5-.4,9.6,0,3.2.4,6.2,1.2,9.2,2.4,2.9,1.2,5.7,2.7,8.2,4.5,2.5,1.8,4.8,4,6.8,6.3,2,2.3,3.6,4.9,4.9,7.6,2.6,5.4,3.6,11.5,3.1,17.4-.5,5.9-2.6,11.6-6,16.3-1.7,2.3-3.7,4.6-5.8,6.2-2.2,1.7-4.6,3-7.2,3.9-2.6.9-5.3,1.3-8.1,1.3-2.7,0-5.5-.5-8.1-1.4-5.1-1.8-9.9-5.5-12.3-9.8-2.6-4.4-3-10.1-1.4-15,.8-2.5,2.2-4.8,4-6.7,1.7-1.8,3.7-3.2,6.1-4,4.7-1.5,10.3-.5,14.1,3.1,1.7,1.6,3.1,3.7,3.5,6.1.5,2.4.1,5-1,7.2-.5,1.1-1.4,2.2-2.2,3-.9.8-1.9,1.5-3,1.9-2.3.9-5,.7-7.3-.5-1.2-.6-2.3-1.4-3-2.4-.7-1-1.3-2.2-1.4-3.5-.2-1.3,0-2.7.5-3.9.5-1.2,1.4-2.5,2.4-3.3,1.1-.8,2.5-1.3,3.9-1.3,1.4,0,2.9.5,4.1,1.5,1.2.9,2.1,2.3,2.3,3.9.2,1.6-.3,3.3-1.4,4.7,1.4-1.1,2.3-2.8,2.4-4.7.1-1.9-.6-3.9-1.9-5.3-1.3-1.5-3.2-2.4-5.2-2.8-2-.3-4.2,0-6.1.9-3.8,2-6.1,6.2-6.1,10.5,0,2.2.6,4.4,1.7,6.3.6,1,1.2,1.9,2,2.7.7.8,1.6,1.5,2.5,2.1,3.6,2.5,8.3,3.3,12.7,2.3,2.2-.5,4.3-1.5,6.1-2.9,1.8-1.4,3.2-3,4.4-4.9,1.2-1.9,2.1-3.9,2.6-6.1.5-2.2.6-4.4.4-6.7-.4-4.5-2.5-8.9-5.6-12.2-3-3.1-6.9-5.5-11.2-6.7-4.3-1.2-8.9-1.2-13.2-.1-4.3,1.1-8.4,3.5-11.5,6.7-3,3-5.5,6.8-7,10.8-3.1,8.1-2.5,17.6,1.7,25.3,2,3.9,5.1,7.3,8.3,9.8,3.3,2.6,7,4.7,11,6.1,8,2.8,16.8,2.7,24.7,0,4-1.4,7.7-3.5,10.9-6.2,3.3-2.7,5.9-5.7,8.1-9.1,4.5-6.7,7.1-14.7,7.3-22.6.2-5.8-.7-11.6-2.7-17,3.3,6.3,5.2,13.5,5.2,21.1,0,25.2-20.5,45.8-45.8,45.8Z"></path>
      </g>
    </g>
  </g>
</svg>
